<?xml version="1.0" encoding="utf-8"?>
<!-- Generator: Adobe Illustrator 17.1.0, SVG Export Plug-In . SVG Version: 6.00 Build 0)  -->
<!DOCTYPE svg PUBLIC "-//W3C//DTD SVG 1.1//EN" "http://www.w3.org/Graphics/SVG/1.1/DTD/svg11.dtd">
<svg version="1.1" id="Layer_1" xmlns="http://www.w3.org/2000/svg" xmlns:xlink="http://www.w3.org/1999/xlink" x="0px" y="0px"
	 viewBox="0 0 215.7 193.3" enable-background="new 0 0 215.7 193.3" xml:space="preserve">
<g>
	<g>
		<path fill="#FFFFFF" d="M2.2,179.7c3-1.7,6-3.4,8.9-5.2c2.9-1.8,5.9-3.5,8.8-5.3c5.8-3.6,11.5-7.4,17-11.4c2.8-2,5.5-4,8.2-6
			c2.7-2,5.4-4.1,8.1-6.2c2.7-2.1,5.3-4.3,7.9-6.5l3.8-3.4l3.8-3.4l3.7-3.5l3.6-3.6l3.5-3.7l3.4-3.7c1.1-1.3,2.2-2.5,3.3-3.8
			c1.1-1.3,2.1-2.6,3.2-3.9c2.1-2.6,4.2-5.3,6.1-8c2-2.7,3.8-5.5,5.6-8.3c0.9-1.4,1.7-2.9,2.6-4.3c0.8-1.4,1.6-2.9,2.4-4.4
			c0.8-1.5,1.5-3,2.2-4.5c0.7-1.5,1.4-3,2.1-4.5c0.6-1.5,1.2-3.1,1.9-4.6l1.6-4.7l3.8-10.9l2.9,11.1c1.5,5.5,3.6,11,6.2,16.2
			c2.5,5.3,5.5,10.4,8.7,15.3c3.2,4.9,6.7,9.7,10.5,14.2c3.8,4.5,7.8,8.7,12.2,12.5c1.1,0.9,2.2,1.8,3.4,2.7
			c0.6,0.4,1.1,0.9,1.7,1.3l0.9,0.6l0.2,0.2l0.1,0.1l0.1,0l0,0c-0.3-0.2-0.1,0-0.1-0.1l0.1,0.1l0.1,0c0,0,0,0,0,0
			c-0.1,0-0.2-0.1-0.2-0.1c-0.2-0.1-0.3,0,0-0.1c0.3-0.1,0.7-0.3,1.2-0.6c0.9-0.6,2-1.4,2.9-2.4c1.9-1.9,3.8-4.1,5.5-6.5
			c1.7-2.3,3.3-4.8,4.8-7.3c0.8-1.3,1.5-2.5,2.2-3.8l1-2l1-1.9c1.3-2.6,2.6-5.3,3.7-8c1.2-2.7,2.3-5.5,3.3-8.2
			c0.5-1.4,1-2.8,1.5-4.2c0.2-0.7,0.5-1.4,0.7-2.1c0.2-0.7,0.4-1.4,0.5-1.9l0.1-0.3l0,0c2-6.2,3.1-12.9,3.7-19.5
			c0.1-1.7,0.2-3.3,0.3-5c0.1-1.7,0.1-3.4,0.1-5c0-3.4,0-6.7-0.2-10.1c-0.1-1.7-0.2-3.4-0.3-5c-0.1-1.7-0.3-3.4-0.5-5
			c-0.4-3.4-0.9-6.7-1.6-10c-0.6-3.3-1.5-6.6-2.4-9.9c-0.5-1.6-0.9-3.3-1.5-4.9c-0.5-1.6-1.2-3.2-1.8-4.8l0.4-0.2
			c2.9,6.2,5,12.7,6.5,19.4c1.5,6.7,2.6,13.4,3.2,20.2c0.3,3.4,0.5,6.8,0.5,10.2c0,1.7,0,3.4,0,5.1c0,1.7-0.1,3.4-0.2,5.1
			c-0.4,6.8-1.4,13.6-3.4,20.2l0,0c-0.7,3-1.7,5.8-2.6,8.7c-1,2.8-2.1,5.7-3.2,8.5c-2.3,5.6-4.8,11.1-7.9,16.3
			c-1.5,2.6-3.2,5.1-4.9,7.6c-1.8,2.5-3.6,4.8-5.8,7c-1.1,1.1-2.2,2.1-3.5,2.9c-0.7,0.4-1.4,0.8-2.1,1c-0.8,0.2-1.6,0.3-2.4,0
			c-0.4-0.2-0.7-0.4-1-0.6l-0.9-0.6c-0.6-0.4-1.2-0.9-1.8-1.3c-1.2-0.9-2.4-1.9-3.5-2.8c-4.6-3.9-8.8-8.3-12.7-12.9
			c-3.9-4.6-7.5-9.5-10.8-14.5c-3.3-5-6.3-10.3-8.9-15.8c-2.6-5.4-4.8-11.1-6.4-17l0.7,0l-1.7,4.9c-0.6,1.6-1.3,3.2-1.9,4.8
			c-0.7,1.6-1.4,3.1-2.2,4.7c-0.8,1.5-1.5,3.1-2.3,4.6c-0.8,1.5-1.6,3-2.5,4.5c-0.9,1.5-1.8,3-2.7,4.4c-1.9,2.9-3.8,5.7-5.8,8.5
			c-2,2.8-4.2,5.5-6.4,8.1c-1.1,1.3-2.2,2.6-3.4,3.9c-1.2,1.3-2.3,2.6-3.5,3.8l-3.6,3.7l-3.6,3.6l-3.7,3.6l-3.8,3.5l-3.9,3.4
			l-3.9,3.3c-2.7,2.2-5.3,4.3-8.1,6.4c-5.4,4.2-11,8.1-16.8,11.9c-5.7,3.8-11.5,7.4-17.5,10.8c-3,1.7-6,3.4-9,5
			c-3,1.6-6.1,3.2-9.1,4.8L2.2,179.7z"/>
	</g>
	<g>
		<path fill="#FFFFFF" d="M103.2,106.9c0,0,0.1-0.1,0.3-0.2c0.2-0.1,0.5-0.3,0.8-0.5c0.7-0.4,1.7-1,3-1.5c1.2-0.5,2.7-0.9,4.3-1.3
			c0.8-0.2,1.6-0.3,2.4-0.4c0.8-0.1,1.7-0.2,2.5-0.2c0.8,0,1.7-0.1,2.5,0c0.8,0,1.7,0.1,2.4,0.2c1.6,0.2,3.1,0.5,4.4,0.8
			c1.3,0.4,2.4,0.8,3.1,1.1c0.4,0.2,0.7,0.3,0.9,0.4c0.2,0.1,0.3,0.2,0.3,0.2l0,0.4c0,0-0.4,0-1.2,0.1c-0.7,0.1-1.8,0.2-3,0.2
			c-2.5,0.2-5.9,0.4-9.3,0.6c-3.4,0.1-6.7,0.3-9.3,0.4c-1.3,0.1-2.3,0.1-3.1,0.1c-0.7,0-1.2,0-1.2,0L103.2,106.9z"/>
	</g>
	<g>
		<path fill="#FFFFFF" d="M214.7,108.5c0,0-0.1,0.5-0.1,1.5c0,1-0.1,2.4-0.2,4.3c-0.2,3.7-0.9,9.2-2.8,15.9c-0.9,3.4-2.2,7-3.9,10.9
			c-1.7,3.8-3.8,7.9-6.5,11.9c-5.4,8.1-13,16.3-23,23.1c-5,3.4-10.6,6.3-16.7,8.7c-6.1,2.4-12.7,4-19.6,4.9
			c-1.7,0.2-3.5,0.4-5.2,0.5c-0.9,0-1.8,0.1-2.7,0.1l-1.3,0h-1.4c-0.9,0-1.8,0-2.6,0c-0.9,0-1.8-0.1-2.7-0.1
			c-1.8-0.1-3.7-0.3-5.5-0.5c-3.6-0.5-7.3-1.1-11-2.1c-3.7-0.9-7.3-2.1-10.8-3.6c-3.6-1.4-7-3.2-10.4-5.1c-3.4-2-6.7-4.2-9.8-6.6
			c-3.1-2.5-6.1-5.2-8.9-8.1c-2.8-2.9-5.3-6.1-7.7-9.4c-2.3-3.3-4.4-6.9-6.3-10.5c-1.8-3.7-3.3-7.5-4.6-11.5
			c-1.2-3.9-2.2-8-2.8-12.1c-0.3-2.1-0.6-4.1-0.7-6.2c-0.1-1-0.2-2.1-0.2-3.1l-0.1-3.2c0.1-3.8,0.4-8.3,1-12.3
			c0.7-4.1,1.6-8.1,2.8-12.1c1.3-3.9,2.8-7.8,4.6-11.5c1.9-3.7,4-7.2,6.3-10.5c2.4-3.3,4.9-6.5,7.7-9.4c2.8-2.9,5.7-5.6,8.9-8.1
			c3.2-2.4,6.4-4.6,9.8-6.6c3.4-1.9,6.9-3.7,10.4-5.1c3.6-1.4,7.2-2.7,10.8-3.6c3.6-1,7.3-1.6,11-2.1c1.8-0.2,3.6-0.4,5.5-0.5
			c0.9,0,1.8-0.2,2.7-0.2c0.9,0,1.8-0.1,2.7-0.1h1.4l1.3,0.2c0.9,0,1.7,0.1,2.6,0.2c1.8,0.2,3.6,0.3,5.3,0.6
			c6.9,0.9,13.5,2.6,19.6,5c6.1,2.4,11.7,5.3,16.7,8.7c10,6.8,17.6,15,23,23.1c2.7,4,4.8,8.1,6.5,11.9c1.7,3.8,3,7.5,3.9,10.9
			c1.9,6.7,2.5,12.2,2.7,15.9c0.2,1.9,0.3,3.3,0.3,4.3C214.5,108,214.7,108.5,214.7,108.5L214.7,108.5z M213.7,108.5
			c0,0,0.2-0.5,0.1-1.5c0-1,0.1-2.4-0.1-4.2c-0.3-3.7-0.8-9.1-2.8-15.8c-0.9-3.3-2.2-7-3.9-10.8c-1.7-3.8-3.9-7.8-6.6-11.8
			c-5.4-8-13-16.1-23.1-22.5c-5-3.2-10.5-6-16.6-8.2c-6-2.2-12.5-3.7-19.3-4.5c-6.7-0.8-13.8-0.6-20.9,0.3
			c-3.5,0.5-7.1,1.2-10.6,2.2c-3.5,0.9-7,2.2-10.4,3.7C86,41.3,73.5,51.2,64.7,64.1c-2.2,3.2-4.2,6.6-5.9,10.1
			c-1.7,3.5-3.1,7.2-4.3,10.9c-1.2,3.8-2,7.6-2.7,11.5c-0.6,3.9-0.8,7.8-0.9,11.8c0,3.9,0.3,7.9,0.9,11.8c0.6,3.9,1.5,7.8,2.7,11.5
			c1.2,3.7,2.6,7.4,4.3,10.9c1.7,3.5,3.7,6.9,5.9,10.1c8.8,12.9,21.3,22.8,34.9,28.6c3.4,1.5,6.9,2.7,10.4,3.7
			c3.5,1,7.1,1.7,10.6,2.2c7.1,1,14.1,1.1,20.9,0.3c6.8-0.8,13.3-2.3,19.3-4.5c6-2.2,11.6-5,16.6-8.2c10-6.4,17.6-14.5,23.1-22.5
			c2.7-4,4.9-8,6.6-11.8c1.7-3.8,3-7.4,4-10.8c1.9-6.7,2.6-12.1,2.8-15.8c0.2-1.8,0-3.3,0-4.2C213.8,108.9,213.7,108.4,213.7,108.5
			L213.7,108.5z"/>
	</g>
</g>
</svg>
