<?xml version="1.0" encoding="utf-8"?>
<!-- Generator: Adobe Illustrator 17.1.0, SVG Export Plug-In . SVG Version: 6.00 Build 0)  -->
<!DOCTYPE svg PUBLIC "-//W3C//DTD SVG 1.1//EN" "http://www.w3.org/Graphics/SVG/1.1/DTD/svg11.dtd">
<svg version="1.1" id="Layer_1" xmlns="http://www.w3.org/2000/svg" xmlns:xlink="http://www.w3.org/1999/xlink" x="0px" y="0px"
	 viewBox="0 0 1280 800" enable-background="new 0 0 1280 800" xml:space="preserve">
<g>
	<g>
		<path d="M203.2,744.1c12.4-7,24.8-14.1,36.8-21.1c12-7,24.4-14.5,36.4-21.9c24-14.9,47.6-30.6,70.8-46.8
			c11.6-8.3,22.8-16.6,34.4-24.8c5.8-4.1,11.6-8.3,17.4-12.4c5.8-4.1,11.2-8.3,17-12.8c11.2-8.7,22.3-17.4,33.1-26.5l16.1-13.7
			l15.7-14.1l15.7-14.1l15.3-14.5l14.9-14.9l14.5-15.3c5-5,9.5-10.3,14.1-15.7s9.1-10.8,13.7-16.1c9.1-10.8,17.8-21.9,26.1-33.1
			c8.3-11.2,16.1-22.8,24-34.8c3.7-5.8,7.4-12,11.2-17.8c3.7-6.2,7-12.4,10.3-18.2c3.3-6.2,6.2-12.4,9.5-18.6
			c2.9-6.2,5.8-12.8,8.7-19c2.9-6.6,5.4-12.8,7.9-19.5l7-19.9l6.6-18.2l5.4,18.6l5,17.4l6.2,17.4l7,17c2.5,5.8,5,11.2,7.9,17
			c2.5,5.8,5.4,11.2,8.3,16.6c2.9,5.4,5.8,10.8,8.7,16.1c2.9,5.4,6.2,10.8,9.5,16.1s6.2,10.8,9.9,15.7l10.3,15.3l10.8,14.9
			c7.4,9.9,14.9,19.5,23.2,29l5.8,7l6.2,6.6c4.1,4.6,8.3,9.1,12.8,13.2c8.7,8.7,17.8,17,26.9,25.2c5,3.7,9.5,7.9,14.1,11.6l7.4,5.4
			l3.7,2.5l0.8,0.8l0.4,0.4h0.4l0,0c-0.8-0.4,0,0-0.4-0.4l0.8,0.4c0.4,0,0.8,0.4,0.8,0.4s0.8,0.4,1.7,0c0.4,0,0.8,0,1.2,0
			c0.4,0,0.8,0,1.7-0.4c2.1-0.8,4.6-1.7,7-3.3c4.6-2.9,9.1-7,13.2-11.2c8.3-8.3,16.1-18.2,23.2-28.1c7-9.9,13.7-20.3,19.9-31
			c3.3-5.4,6.2-10.8,9.1-16.1l8.3-16.6c5.4-11.2,10.3-22.3,14.9-33.5c4.6-11.6,9.1-23.2,13.2-34.8c2.1-5.8,3.7-11.6,5.8-17.4
			c1.7-5.8,3.7-11.6,4.6-17.4v-0.4V334c1.7-6.6,3.7-13.2,5.4-19.9c1.2-6.6,2.9-13.7,3.7-20.3c0.8-7,2.1-13.7,2.9-20.7
			c0.4-7,1.2-13.7,1.7-20.7l0.8-20.7v-21.1c0-7-0.4-14.1-0.4-21.1c0-7-0.4-14.1-0.8-21.1c-0.4-7-1.2-14.1-1.7-21.1
			c-0.4-7-1.7-14.1-2.1-20.7c-0.8-7-2.1-14.1-2.9-20.7c-0.8-7-2.5-13.7-3.7-20.7c-1.2-7-2.9-13.7-4.6-20.7c-1.7-7-3.7-13.7-5.4-20.3
			c-1.7-7-4.1-13.2-6.6-20.3c-2.1-6.6-5-13.2-7.9-19.9c2.9,6.2,6.2,12.8,9.1,19c2.5,6.6,5.8,12.8,7.9,19.9c2.5,6.6,5,13.2,6.6,20.3
			c2.1,6.6,4.1,13.7,5.8,20.3c1.7,7,3.7,13.7,5,20.7c1.7,7,3.3,13.7,4.1,20.7c1.2,7,2.5,14.1,3.3,21.1c0.8,7,2.1,14.1,2.9,21.1
			c0.8,7,1.7,14.1,2.1,21.1c0.4,7,0.8,14.1,1.2,21.5v21.5l-0.8,21.5c-0.4,7-1.2,14.1-1.7,21.5c-0.8,7-2.1,14.1-2.9,21.1
			c-1.2,7-2.9,14.1-4.1,21.1c-1.7,7-3.7,14.1-5.4,21.1v-0.8c-2.9,13.2-7,24.8-11.2,36.8c-4.1,12-8.7,23.6-13.2,35.2
			c-4.6,11.6-9.9,23.2-15.3,34.8l-8.3,17c-2.9,5.4-6.2,11.2-9.1,16.6c-6.2,10.8-13.2,21.5-20.7,31.9c-7.4,10.3-15.3,20.3-24.4,29.4
			c-4.6,4.6-9.5,9.1-15.3,12.8c-2.9,2.1-6.2,3.7-9.9,4.6c-0.8,0.4-2.1,0.4-2.9,0.8c-0.8,0.4-2.1,0.4-3.3,0.4c-2.1,0-4.6-0.4-7.4-1.2
			c-0.8-0.4-0.8-0.4-1.2-0.8l-0.8-0.4l-0.4-0.4l0,0h-0.4l-0.4-0.4l-0.8-0.8l-3.7-2.9l-7.9-5.8c-5-3.7-9.9-7.9-14.9-12
			c-9.5-8.3-19-17-27.7-26.1c-4.6-4.6-8.7-9.1-12.8-13.7l-6.2-7l-6.2-7c-8.3-9.5-15.7-19.5-23.6-29.4l-11.2-15.3L737.9,418
			c-3.7-5-6.6-10.8-9.9-16.1c-3.3-5.4-6.6-10.8-9.5-16.1c-3.3-5.4-6.2-10.8-9.1-16.6c-2.9-5.8-5.8-11.2-8.7-17
			c-2.5-5.8-5.4-11.6-7.9-17.4l-7-17.4l-6.2-17.8l-5.4-18.2l12,0.4l-7,20.3c-2.9,6.6-5.4,13.2-8.3,19.9c-2.9,6.6-5.8,13.2-9.1,19.5
			c-3.3,6.2-6.2,12.8-9.9,19c-3.3,6.2-7,12.4-10.3,18.6c-3.7,6.2-7.4,12.4-11.2,18.2c-7.9,12-15.7,24-24.4,35.6
			c-8.7,11.6-17.4,22.8-26.5,33.9c-4.6,5.4-9.1,10.8-14.1,16.1s-9.5,10.8-14.5,15.7L535.9,514l-15.3,15.3l-15.3,14.9l-15.7,14.5
			l-16.1,14.1l-16.6,13.7c-11.2,9.1-22.3,17.8-33.5,26.5c-11.2,8.7-22.8,17.4-34.4,25.7c-11.6,8.3-23.6,15.7-35.6,23.2
			c-24,14.9-48.8,29.4-73.7,43c-12.4,6.6-25.2,13.2-37.7,19.9C228.8,732.1,216,738.3,203.2,744.1z"/>
	</g>
	<g>
		<path d="M620.8,443.2c0,0,1.7-1.2,4.6-2.5c1.7-0.8,3.3-1.7,5.4-2.5c1.2-0.4,2.1-0.8,3.3-1.7c0.4-0.4,1.2-0.4,1.7,0
			c0.8,0,1.2,0,2.1,0c10.3-0.4,24.4-1.2,38.5-2.1c14.1-0.8,27.7-1.7,38.5-2.1c0.8,0,1.2,0,2.1,0c0.4,0,1.2,0,1.7,0
			c1.2,0.4,2.5,0.8,3.3,1.2c2.1,0.8,4.1,1.7,5.8,2.1c3.3,1.2,5,2.1,5,2.1s-1.7,0.8-4.6,2.5c-1.7,0.8-3.3,1.7-5.4,2.5
			c-1.2,0.4-2.1,0.8-3.3,1.7c-0.4,0.4-1.2,0.4-1.7,0.4c-0.8,0-1.2,0-2.1,0c-10.3,0.4-24.4,1.2-38.5,2.1c-14.1,0.8-27.7,1.7-38.5,2.1
			c-0.8,0-1.2,0-2.1,0c-0.4,0-1.2,0.4-1.7,0c-1.2-0.4-2.5-0.8-3.3-1.2c-2.1-0.8-4.1-1.7-5.8-2.1
			C622.4,444.1,620.8,443.2,620.8,443.2z"/>
	</g>
	<g>
		<path d="M1080.1,449c0,0,0,2.1,0,6.2s0,9.9-0.8,17.4c-0.4,7.9-1.7,17-2.9,28.1c-1.7,11.2-4.1,23.6-7.4,37.7
			c-3.3,14.1-8.7,29.4-15.3,45.5s-14.9,33.1-26.1,50.5c-11.2,17-24.4,34.4-40.1,50.9s-34.8,31.5-55.9,45.1
			c-21.1,13.7-44.7,25.7-69.9,34.8s-53,15.7-81.5,19c-7,0.8-14.5,1.2-21.5,1.7c-3.7,0-7.4,0-10.8,0.4h-5.4h-5.8
			c-3.7,0-7.4,0-10.8-0.4c-3.7,0-7.4-0.4-11.2-0.8c-7.4-0.4-14.9-1.7-22.3-2.5c-14.9-2.1-29.8-5-44.7-9.5
			c-14.9-4.1-29.4-9.1-43.9-15.3c-57.5-24.4-110.5-66.2-147.7-120.8c-9.1-13.7-17.8-28.1-24.8-43c-7.4-14.9-13.2-30.6-18.6-46.4
			c-5-16.1-8.7-32.3-11.2-48.8c-2.5-16.6-3.7-33.1-3.7-50.1c0-16.1,1.2-33.5,3.7-50.1c2.5-16.6,6.2-32.7,11.2-48.8
			c5-15.7,11.2-31.5,18.6-46.4s15.7-29.4,24.8-43c37.2-54.6,90.2-96.4,147.7-120.8c14.5-6.2,29-11.6,43.9-15.3
			c14.9-4.1,29.8-7,44.7-9.5c7.4-0.8,14.9-2.1,22.3-2.5c3.7-0.4,7.4-0.8,11.2-0.8c3.7,0,7.4,0,11.2-0.4c2.1,0,3.7,0,5.8,0h5.4
			c3.7,0,7,0,10.8,0.4c7.4,0.4,14.5,0.8,21.9,1.7c28.6,3.3,55.9,9.5,81.5,19c25.2,9.5,48.8,21.1,69.9,34.8
			c21.1,13.7,40.1,28.6,55.9,45.1c15.7,16.6,29,33.9,40.1,50.9c10.8,17,19.5,34.4,26.1,50.5c6.6,16.1,12,31.5,15.3,45.5
			c3.7,14.1,5.8,26.5,7.4,37.7c1.2,11.2,2.5,20.7,2.9,28.1c0.8,7.9,0.4,13.7,0.8,17.4C1080.1,447,1080.1,449,1080.1,449z
			 M1080.1,449c0,0,0-2.1,0-6.2s0-9.9-0.8-17.4c-0.4-3.7-0.4-8.3-1.2-12.8s-1.2-9.9-2.5-15.3c-1.2-5.4-2.1-11.6-3.7-17.8
			c-1.7-6.2-3.3-12.8-5.4-19.5c-8.7-27.3-22.8-59.6-46.4-91.5c-11.6-16.1-25.2-31.9-41.4-47.2c-4.1-3.7-8.3-7.4-12.4-11.2
			c-4.1-3.7-8.7-7.4-12.8-11.2c-4.6-3.7-9.1-7-14.1-10.8c-5-3.3-9.5-7-14.9-9.9c-20.3-13.2-43-24.4-67.5-33.5
			c-24.4-9.1-50.9-14.9-78.6-18.2c-7-0.8-13.7-1.2-20.7-1.7c-3.7,0-7,0-10.8-0.4h-5.4h-5.4c-3.7,0-7,0-10.8,0.4
			c-3.7,0-7,0.4-10.8,0.8c-7,0.4-14.5,1.2-21.5,2.5c-14.5,2.1-29,5-43,9.1c-14.5,3.7-28.6,9.1-42.6,14.9
			c-55,22.8-105.9,62.9-142,115.5c-9.1,13.2-17,26.9-24,41.4s-12.8,29.4-17.8,44.7c-5,15.3-8.3,31-10.8,47.2s-3.3,31.9-3.7,48.4
			c0,15.7,1.2,32.3,3.7,48c2.5,15.7,6.2,31.5,10.8,47.2c5,15.3,10.8,30.2,17.8,44.7c7,14.5,15.3,28.1,24,41.4
			c36,52.6,86.9,92.7,142.8,116.7c14.1,5.8,28.1,11.2,42.6,14.9c14.5,4.1,29,7,43,9.1c7,0.8,14.5,2.1,21.5,2.5
			c3.7,0.4,7,0.4,10.8,0.8c3.7,0,7.4,0,10.8,0.4c7,0.4,14.1-0.4,21.1-0.4c7-0.4,14.1-0.8,20.7-1.7c27.7-3.3,54.2-9.1,78.6-18.2
			c24.4-9.1,47.2-20.3,67.5-33.5c20.7-12.8,38.1-28.1,53.8-43.5c16.1-15.3,29.8-31,41.4-47.2c23.6-31.9,37.7-64.1,46.4-91.5
			c2.5-6.6,3.7-13.2,5.4-19.5c1.7-6.2,2.5-12,3.7-17.8c0.8-5.4,1.7-10.8,2.5-15.3c0.8-4.6,0.8-9.1,1.2-12.8
			c0.8-7.9,0.8-13.7,0.8-17.4C1080.1,450.7,1080.1,449,1080.1,449z"/>
	</g>
</g>
</svg>
